<svg width="40" height="40" viewBox="0 0 40 40" fill="none" xmlns="http://www.w3.org/2000/svg">
<g clip-path="url(#clip0_11_240)">
<path d="M20.0001 39.2308C30.6209 39.2308 39.2308 30.6209 39.2308 20.0001C39.2308 9.3792 30.6209 0.769287 20.0001 0.769287C9.3792 0.769287 0.769287 9.3792 0.769287 20.0001C0.769287 30.6209 9.3792 39.2308 20.0001 39.2308Z" stroke="#F5333F"/>
<path d="M26.6996 25.3581L27.4938 20.3183H22.7295V16.7904C22.7295 15.3793 23.2258 14.2705 25.4093 14.2705H27.6922V9.6339C26.4019 9.4323 25.0124 9.23071 23.7221 9.23071C19.6525 9.23071 16.7741 11.7506 16.7741 16.2864V20.3183H12.3076V25.3581H16.7741V38.4615C17.7667 38.663 19.0073 39.2307 19.9999 39.2307C20.9925 39.2307 21.7368 38.663 22.7295 38.4615V25.3581H26.6996Z" fill="#F5333F"/>
</g>
<defs>
<clipPath id="clip0_11_240">
<rect width="40" height="40" fill="white"/>
</clipPath>
</defs>
</svg>
