<svg width="203" height="40" viewBox="0 0 203 40" fill="none" xmlns="http://www.w3.org/2000/svg">
<g clip-path="url(#clip0_11_233)">
<path d="M20.0001 39.2308C30.6209 39.2308 39.2308 30.6209 39.2308 20.0001C39.2308 9.3792 30.6209 0.769287 20.0001 0.769287C9.3792 0.769287 0.769287 9.3792 0.769287 20.0001C0.769287 30.6209 9.3792 39.2308 20.0001 39.2308Z" stroke="#F5333F"/>
<path d="M17.0503 30.699C25.7497 30.699 30.5072 23.4923 30.5072 17.2421C30.5072 17.0376 30.5072 16.834 30.4937 16.6313C31.4195 15.9615 32.2187 15.1321 32.8537 14.182C31.9906 14.5649 31.075 14.8161 30.1373 14.9273C31.1244 14.3359 31.863 13.4061 32.216 12.3109C31.2877 12.8617 30.2723 13.2499 29.2133 13.4587C28.5001 12.7004 27.557 12.1983 26.5298 12.03C25.5026 11.8618 24.4484 12.0368 23.5306 12.5279C22.6129 13.0191 21.8826 13.799 21.4527 14.7471C21.0227 15.695 20.9173 16.7584 21.1527 17.7724C19.2724 17.6781 17.4329 17.1895 15.7537 16.3384C14.0744 15.4872 12.5929 14.2923 11.4053 12.8315C10.8007 13.8727 10.6156 15.1053 10.8877 16.2783C11.1598 17.4512 11.8687 18.4763 12.8701 19.145C12.1174 19.1224 11.3811 18.9192 10.7234 18.5523V18.6129C10.7237 19.7047 11.1016 20.763 11.7931 21.608C12.4846 22.453 13.4471 23.0329 14.5174 23.2492C13.8212 23.4389 13.0907 23.4666 12.3822 23.33C12.6844 24.2696 13.2727 25.0915 14.0649 25.6806C14.8571 26.2695 15.8135 26.5963 16.8006 26.6149C15.8198 27.3853 14.6969 27.955 13.4959 28.2913C12.2949 28.6275 11.0395 28.7236 9.80127 28.5744C11.9639 29.9626 14.4804 30.6992 17.0503 30.6961" fill="#F5333F"/>
</g>
<g clip-path="url(#clip1_11_233)">
<path d="M100 39.2308C110.621 39.2308 119.231 30.6209 119.231 20.0001C119.231 9.3792 110.621 0.769287 100 0.769287C89.3792 0.769287 80.7693 9.3792 80.7693 20.0001C80.7693 30.6209 89.3792 39.2308 100 39.2308Z" stroke="#F5333F"/>
<path fill-rule="evenodd" clip-rule="evenodd" d="M113.379 6.15381H89.7799C88.6511 6.15381 87.6924 7.04656 87.6924 8.14633V31.8523C87.6924 32.9533 88.3214 33.8461 89.4502 33.8461H113.049C114.179 33.8461 115.385 32.9533 115.385 31.8523V8.14633C115.385 7.04656 114.509 6.15381 113.379 6.15381ZM113.379 6.15381H89.7799C88.6511 6.15381 87.6924 7.04656 87.6924 8.14633V31.8523C87.6924 32.9533 88.3214 33.8461 89.4502 33.8461H113.049C114.179 33.8461 115.385 32.9533 115.385 31.8523V8.14633C115.385 7.04656 114.509 6.15381 113.379 6.15381ZM98.2418 16.7032H101.97V18.6035H102.011C102.579 17.5789 104.258 16.5384 106.333 16.5384C110.317 16.5384 111.429 18.6535 111.429 22.5713V29.8901H107.473V23.2927C107.473 21.5389 106.772 20 105.135 20C103.146 20 102.198 21.3463 102.198 23.5564V29.8901H98.2418V16.7032ZM91.6484 29.8901H95.6045V16.7032H91.6484V29.8901ZM96.099 12.0879C96.0992 12.4125 96.0353 12.734 95.9112 13.034C95.7872 13.334 95.6052 13.6066 95.3756 13.8362C95.1461 14.0659 94.8737 14.2481 94.5738 14.3724C94.2739 14.4967 93.9524 14.5608 93.6278 14.5609C93.3031 14.5609 92.9816 14.4971 92.6817 14.3729C92.3817 14.2487 92.1091 14.0667 91.8795 13.8372C91.6499 13.6076 91.4678 13.3351 91.3435 13.0352C91.2192 12.7353 91.1553 12.4138 91.1552 12.0892C91.1552 11.4337 91.4155 10.805 91.8789 10.3414C92.3424 9.87784 92.9709 9.6173 93.6264 9.61713C94.2819 9.61695 94.9107 9.87715 95.3743 10.3405C95.8381 10.8038 96.0987 11.4324 96.099 12.0879Z" fill="#F5333F"/>
</g>
<g clip-path="url(#clip2_11_233)">
<path d="M180 39.2308C190.621 39.2308 199.231 30.6209 199.231 20.0001C199.231 9.3792 190.621 0.769287 180 0.769287C169.379 0.769287 160.769 9.3792 160.769 20.0001C160.769 30.6209 169.379 39.2308 180 39.2308Z" stroke="#F5333F"/>
<path d="M186.7 25.3581L187.494 20.3183H182.729V16.7904C182.729 15.3793 183.226 14.2705 185.409 14.2705H187.692V9.6339C186.402 9.4323 185.012 9.23071 183.722 9.23071C179.653 9.23071 176.774 11.7506 176.774 16.2864V20.3183H172.308V25.3581H176.774V38.4615C177.767 38.663 179.007 39.2307 180 39.2307C180.993 39.2307 181.737 38.663 182.729 38.4615V25.3581H186.7Z" fill="#F5333F"/>
</g>
<defs>
<clipPath id="clip0_11_233">
<rect width="40" height="40" fill="white"/>
</clipPath>
<clipPath id="clip1_11_233">
<rect width="40" height="40" fill="white" transform="translate(80)"/>
</clipPath>
<clipPath id="clip2_11_233">
<rect width="40" height="40" fill="white" transform="translate(160)"/>
</clipPath>
</defs>
</svg>
