<svg width="40" height="40" viewBox="0 0 40 40" fill="none" xmlns="http://www.w3.org/2000/svg">
<g clip-path="url(#clip0_11_237)">
<path d="M20.0001 39.2308C30.6209 39.2308 39.2308 30.6209 39.2308 20.0001C39.2308 9.3792 30.6209 0.769287 20.0001 0.769287C9.3792 0.769287 0.769287 9.3792 0.769287 20.0001C0.769287 30.6209 9.3792 39.2308 20.0001 39.2308Z" stroke="#F5333F"/>
<path fill-rule="evenodd" clip-rule="evenodd" d="M33.379 6.15381H9.77986C8.65106 6.15381 7.69238 7.04656 7.69238 8.14633V31.8523C7.69238 32.9533 8.3214 33.8461 9.45018 33.8461H33.0493C34.1793 33.8461 35.3847 32.9533 35.3847 31.8523V8.14633C35.3847 7.04656 34.509 6.15381 33.379 6.15381ZM33.379 6.15381H9.77986C8.65106 6.15381 7.69238 7.04656 7.69238 8.14633V31.8523C7.69238 32.9533 8.3214 33.8461 9.45018 33.8461H33.0493C34.1793 33.8461 35.3847 32.9533 35.3847 31.8523V8.14633C35.3847 7.04656 34.509 6.15381 33.379 6.15381ZM18.2418 16.7032H21.9698V18.6035H22.0105C22.579 17.5789 24.2576 16.5384 26.3333 16.5384C30.317 16.5384 31.4287 18.6535 31.4287 22.5713V29.8901H27.4725V23.2927C27.4725 21.5389 26.7724 20 25.1345 20C23.1459 20 22.1979 21.3463 22.1979 23.5564V29.8901H18.2418V16.7032ZM11.6484 29.8901H15.6045V16.7032H11.6484V29.8901ZM16.099 12.0879C16.0992 12.4125 16.0353 12.734 15.9112 13.034C15.7872 13.334 15.6052 13.6066 15.3756 13.8362C15.1461 14.0659 14.8737 14.2481 14.5738 14.3724C14.2739 14.4967 13.9524 14.5608 13.6278 14.5609C13.3031 14.5609 12.9816 14.4971 12.6817 14.3729C12.3817 14.2487 12.1091 14.0667 11.8795 13.8372C11.6499 13.6076 11.4678 13.3351 11.3435 13.0352C11.2192 12.7353 11.1553 12.4138 11.1552 12.0892C11.1552 11.4337 11.4155 10.805 11.8789 10.3414C12.3424 9.87784 12.9709 9.6173 13.6264 9.61713C14.2819 9.61695 14.9107 9.87715 15.3743 10.3405C15.8381 10.8038 16.0987 11.4324 16.099 12.0879Z" fill="#F5333F"/>
</g>
<defs>
<clipPath id="clip0_11_237">
<rect width="40" height="40" fill="white"/>
</clipPath>
</defs>
</svg>
