<svg width="256" height="41" viewBox="0 0 256 41" fill="none" xmlns="http://www.w3.org/2000/svg">
<path d="M7.84347 39.2188H8.55513V38.5072V16.1011L13.248 38.5993L13.3661 39.1656H13.9447H17.8659H18.4504L18.564 38.5924L23.0029 16.196V38.5072V39.2188H23.7146H27.5827H28.2944V38.5072V1.74047V1.02882H27.5827H21.8669H21.2825L21.1689 1.60203L16.0316 27.5054L10.6939 1.59687L10.5768 1.02882H9.99684H4.28111H3.56946V1.74047V38.5072V39.2188H4.28111H7.84347ZM48.4183 39.2188H49.0056L49.1172 38.6426L50.4411 31.8083H58.545L59.8691 38.6426L59.9807 39.2188H60.5677H64.6483H65.5088L65.3474 38.3736L58.3223 1.60691L58.2119 1.02882H57.6235H51.6751H51.0864L50.976 1.60691L43.951 38.3736L43.7895 39.2188H44.65H48.4183ZM85.3778 39.2188H86.0895V38.5072V13.3962L94.1104 38.7221L94.2678 39.2188H94.789H99.0424H99.7541V38.5072V1.74047V1.02882H99.0424H95.4071H94.6954V1.74047V23.7617L87.5978 1.52409L87.4396 1.02882H86.9199H81.7159H81.0042V1.74047V38.5072V39.2188H81.7159H85.3778ZM121.241 39.2188H121.952V38.5072V1.74047V1.02882H121.241H117.14H116.428V1.74047V38.5072V39.2188H117.14H121.241ZM143.432 39.2188H144.144V38.5072V23.3012H151.866H152.578V22.5895V18.8677V18.156H151.866H144.144V6.20058H153.92H154.632V5.48892V1.74047V1.02882H153.92H139.332H138.62V1.74047V38.5072V39.2188H139.332H143.432ZM176.457 33.3332L176.456 33.3318C175.867 32.5919 175.521 31.4622 175.521 29.8406V10.4071C175.521 8.80576 175.866 7.67759 176.458 6.92646C177.018 6.21591 177.875 5.8151 179.162 5.8151C180.476 5.8151 181.335 6.21863 181.884 6.92313C182.469 7.67458 182.81 8.80413 182.81 10.4071V29.8406C182.81 31.5313 182.461 32.6671 181.882 33.3717C181.326 34.0494 180.465 34.4392 179.162 34.4392C177.874 34.4392 177.017 34.0398 176.457 33.3332ZM219.996 39.2188H220.708V38.5072V34.7919V34.0803H219.996H210.22V1.74047V1.02882H209.508H205.408H204.696V1.74047V38.5072V39.2188H205.408H219.996ZM236.299 38.5072V39.2188H237.01H245.632C248.547 39.2188 250.857 38.3854 252.421 36.6036V36.6028C253.952 34.8497 254.67 32.4248 254.67 29.4285V10.8989C254.67 7.88551 253.954 5.4446 252.423 3.67441V3.67355C250.861 1.87267 248.552 1.02882 245.632 1.02882H237.01H236.299V1.74047V38.5072ZM57.7093 26.8759H51.2263L54.4284 10.1308L57.7093 26.8759ZM170.07 10.6397V29.6345C170.07 32.6094 170.814 35.0461 172.383 36.8594C173.978 38.7022 176.279 39.5777 179.162 39.5777C182.078 39.5777 184.401 38.7042 186.006 36.861C187.585 35.0477 188.335 32.6104 188.335 29.6345V10.6397C188.335 7.6358 187.587 5.18557 186.005 3.37919C184.4 1.54092 182.078 0.669922 179.162 0.669922C176.264 0.669922 173.957 1.5417 172.37 3.38214C170.808 5.18856 170.07 7.63763 170.07 10.6397ZM245.577 34.0803H241.829V6.20058H245.524C246.852 6.20058 247.728 6.58648 248.291 7.25019C248.873 7.93636 249.227 9.04189 249.227 10.6929V29.5879C249.227 31.2406 248.877 32.3475 248.301 33.0339C247.746 33.6962 246.884 34.0803 245.577 34.0803Z" fill="white" stroke="white" stroke-width="1.33966" stroke-linecap="round"/>
<path d="M4.94382 39.2188H5.65547V38.5072V16.1011L10.3483 38.5993L10.4665 39.1656H11.045H14.9663H15.5507L15.6643 38.5924L20.1033 16.196V38.5072V39.2188H20.8149H24.6831H25.3947V38.5072V1.74047V1.02882H24.6831H18.9673H18.3829L18.2692 1.60203L13.1319 27.5054L7.7942 1.59687L7.67716 1.02882H7.09718H1.38145H0.6698V1.74047V38.5072V39.2188H1.38145H4.94382ZM45.5187 39.2188H46.1059L46.2175 38.6426L47.5414 31.8083H55.6453L56.9694 38.6426L57.081 39.2188H57.6681H61.7487H62.6092L62.4477 38.3736L55.4227 1.60691L55.3123 1.02882H54.7238H48.7754H48.1868L48.0764 1.60691L41.0513 38.3736L40.8899 39.2188H41.7504H45.5187ZM82.4782 39.2188H83.1898V38.5072V13.3962L91.2108 38.7221L91.3682 39.2188H91.8893H96.1428H96.8544V38.5072V1.74047V1.02882H96.1428H92.5074H91.7958V1.74047V23.7617L84.6981 1.52409L84.5399 1.02882H84.0202H78.8162H78.1045V1.74047V38.5072V39.2188H78.8162H82.4782ZM118.341 39.2188H119.053V38.5072V1.74047V1.02882H118.341H114.24H113.529V1.74047V38.5072V39.2188H114.24H118.341ZM140.533 39.2188H141.244V38.5072V23.3012H148.967H149.678V22.5895V18.8677V18.156H148.967H141.244V6.20058H151.02H151.732V5.48892V1.74047V1.02882H151.02H136.432H135.72V1.74047V38.5072V39.2188H136.432H140.533ZM173.557 33.3332L173.556 33.3318C172.967 32.5919 172.621 31.4622 172.621 29.8406V10.4071C172.621 8.80576 172.966 7.67759 173.558 6.92646C174.118 6.21591 174.975 5.8151 176.263 5.8151C177.577 5.8151 178.436 6.21863 178.984 6.92313C179.57 7.67458 179.911 8.80413 179.911 10.4071V29.8406C179.911 31.5313 179.561 32.6671 178.982 33.3717C178.426 34.0494 177.565 34.4392 176.263 34.4392C174.974 34.4392 174.117 34.0398 173.557 33.3332ZM217.096 39.2188H217.808V38.5072V34.7919V34.0803H217.096H207.32V1.74047V1.02882H206.608H202.508H201.797V1.74047V38.5072V39.2188H202.508H217.096ZM233.399 38.5072V39.2188H234.111H242.732C245.648 39.2188 247.958 38.3854 249.521 36.6036V36.6028C251.052 34.8497 251.77 32.4248 251.77 29.4285V10.8989C251.77 7.88551 251.054 5.4446 249.523 3.67441V3.67355C247.962 1.87267 245.652 1.02882 242.732 1.02882H234.111H233.399V1.74047V38.5072ZM54.8096 26.8759H48.3267L51.5287 10.1308L54.8096 26.8759ZM167.17 10.6397V29.6345C167.17 32.6094 167.914 35.0461 169.484 36.8594C171.079 38.7022 173.379 39.5777 176.263 39.5777C179.179 39.5777 181.501 38.7042 183.107 36.861C184.686 35.0477 185.435 32.6104 185.435 29.6345V10.6397C185.435 7.6358 184.687 5.18557 183.106 3.37919C181.5 1.54092 179.178 0.669922 176.263 0.669922C173.364 0.669922 171.058 1.5417 169.47 3.38214C167.908 5.18856 167.17 7.63763 167.17 10.6397ZM242.677 34.0803H238.93V6.20058H242.624C243.952 6.20058 244.828 6.58648 245.392 7.25019C245.973 7.93636 246.327 9.04189 246.327 10.6929V29.5879C246.327 31.2406 245.977 32.3475 245.402 33.0339C244.847 33.6962 243.985 34.0803 242.677 34.0803Z" fill="#212121" stroke="white" stroke-width="1.33966" stroke-linecap="round"/>
<path d="M5.65547 39.2188H4.94382H1.38145H0.6698V38.5072V1.74046V1.02881H1.38145H7.09718H7.67716L7.7942 1.59686L13.1319 27.5054L18.2692 1.60202L18.3829 1.02881H18.9673H24.6831H25.3947V1.74046V38.5072V39.2188H24.6831H20.8149H20.1033V38.5072V16.196L15.6643 38.5924L15.5507 39.1656H14.9663H11.045H10.4665L10.3483 38.5993L5.65547 16.1011V38.5072V39.2188Z" fill="#212121" stroke="white" stroke-width="1.33966" stroke-linecap="round"/>
</svg>
