<svg width="40" height="40" viewBox="0 0 40 40" fill="none" xmlns="http://www.w3.org/2000/svg">
<g clip-path="url(#clip0_11_234)">
<path d="M20.0001 39.2308C30.6209 39.2308 39.2308 30.6209 39.2308 20.0001C39.2308 9.3792 30.6209 0.769287 20.0001 0.769287C9.3792 0.769287 0.769287 9.3792 0.769287 20.0001C0.769287 30.6209 9.3792 39.2308 20.0001 39.2308Z" stroke="#F5333F"/>
<path d="M17.0503 30.699C25.7497 30.699 30.5072 23.4923 30.5072 17.2421C30.5072 17.0376 30.5072 16.834 30.4937 16.6313C31.4195 15.9615 32.2187 15.1321 32.8537 14.182C31.9906 14.5649 31.075 14.8161 30.1373 14.9273C31.1244 14.3359 31.863 13.4061 32.216 12.3109C31.2877 12.8617 30.2723 13.2499 29.2133 13.4587C28.5001 12.7004 27.557 12.1983 26.5298 12.03C25.5026 11.8618 24.4484 12.0368 23.5306 12.5279C22.6129 13.0191 21.8826 13.799 21.4527 14.7471C21.0227 15.695 20.9173 16.7584 21.1527 17.7724C19.2724 17.6781 17.4329 17.1895 15.7537 16.3384C14.0744 15.4872 12.5929 14.2923 11.4053 12.8315C10.8007 13.8727 10.6156 15.1053 10.8877 16.2783C11.1598 17.4512 11.8687 18.4763 12.8701 19.145C12.1174 19.1224 11.3811 18.9192 10.7234 18.5523V18.6129C10.7237 19.7047 11.1016 20.763 11.7931 21.608C12.4846 22.453 13.4471 23.0329 14.5174 23.2492C13.8212 23.4389 13.0907 23.4666 12.3822 23.33C12.6844 24.2696 13.2727 25.0915 14.0649 25.6806C14.8571 26.2695 15.8135 26.5963 16.8006 26.6149C15.8198 27.3853 14.6969 27.955 13.4959 28.2913C12.2949 28.6275 11.0395 28.7236 9.80127 28.5744C11.9639 29.9626 14.4804 30.6992 17.0503 30.6961" fill="#F5333F"/>
</g>
<defs>
<clipPath id="clip0_11_234">
<rect width="40" height="40" fill="white"/>
</clipPath>
</defs>
</svg>
