<svg width="142" height="41" viewBox="0 0 142 41" fill="none" xmlns="http://www.w3.org/2000/svg">
<rect x="-0.5" y="0.5" width="40" height="40" rx="20" transform="matrix(-1 0 0 1 40 0)" stroke="#C2C2C2"/>
<g clip-path="url(#clip0_11_81)">
<path d="M25.2271 11.9678C25.3173 11.8723 25.3878 11.76 25.4347 11.6373C25.4815 11.5145 25.5037 11.3838 25.4999 11.2525C25.4962 11.1212 25.4667 10.9919 25.413 10.872C25.3593 10.7521 25.2826 10.644 25.1871 10.5538C25.0916 10.4635 24.9793 10.393 24.8566 10.3462C24.7339 10.2994 24.6031 10.2772 24.4718 10.2809C24.3405 10.2846 24.2112 10.3142 24.0913 10.3679C23.9714 10.4215 23.8633 10.4983 23.7731 10.5938L15.2731 19.5938C15.0976 19.7794 14.9997 20.0253 14.9997 20.2808C14.9997 20.5363 15.0976 20.7821 15.2731 20.9678L23.7731 29.9688C23.8627 30.0663 23.9708 30.1451 24.0912 30.2005C24.2115 30.256 24.3416 30.2869 24.474 30.2916C24.6064 30.2963 24.7384 30.2747 24.8624 30.2279C24.9863 30.1812 25.0998 30.1103 25.1961 30.0193C25.2924 29.9284 25.3697 29.8192 25.4235 29.6981C25.4772 29.577 25.5064 29.4465 25.5093 29.314C25.5122 29.1816 25.4887 29.0499 25.4403 28.9266C25.3918 28.8033 25.3194 28.6908 25.2271 28.5958L17.3751 20.2808L25.2271 11.9678Z" fill="#C2C2C2"/>
</g>
<rect x="101.5" y="0.5" width="40" height="40" rx="20" stroke="#C2C2C2"/>
<g clip-path="url(#clip1_11_81)">
<path d="M116.773 11.9678C116.683 11.8723 116.612 11.76 116.565 11.6373C116.519 11.5145 116.496 11.3838 116.5 11.2525C116.504 11.1212 116.533 10.9919 116.587 10.872C116.641 10.7521 116.717 10.644 116.813 10.5538C116.908 10.4635 117.021 10.393 117.143 10.3462C117.266 10.2994 117.397 10.2772 117.528 10.2809C117.659 10.2846 117.789 10.3142 117.909 10.3679C118.029 10.4215 118.137 10.4983 118.227 10.5938L126.727 19.5938C126.902 19.7794 127 20.0253 127 20.2808C127 20.5363 126.902 20.7821 126.727 20.9678L118.227 29.9688C118.137 30.0663 118.029 30.1451 117.909 30.2005C117.789 30.256 117.658 30.2869 117.526 30.2916C117.394 30.2963 117.262 30.2747 117.138 30.2279C117.014 30.1812 116.9 30.1103 116.804 30.0193C116.708 29.9284 116.63 29.8192 116.577 29.6981C116.523 29.577 116.494 29.4465 116.491 29.314C116.488 29.1816 116.511 29.0499 116.56 28.9266C116.608 28.8033 116.681 28.6908 116.773 28.5958L124.625 20.2808L116.773 11.9678Z" fill="#C2C2C2"/>
</g>
<defs>
<clipPath id="clip0_11_81">
<rect width="12" height="21" fill="white" transform="matrix(-1 0 0 1 26.5 10)"/>
</clipPath>
<clipPath id="clip1_11_81">
<rect width="12" height="21" fill="white" transform="translate(115.5 10)"/>
</clipPath>
</defs>
</svg>
